<mxfile host="app.diagrams.net" modified="2024-03-05T16:41:07.057Z" agent="Mozilla/5.0 (Windows NT 10.0; Win64; x64) AppleWebKit/537.36 (KHTML, like Gecko) Chrome/122.0.0.0 Safari/537.36" etag="MohRwRUdQGMYtWDC39RI" version="24.0.1" type="github">
  <diagram name="Page-1" id="IDm5lbEl1YZt9IO8e22K">
    <mxGraphModel dx="1745" dy="1148" grid="1" gridSize="10" guides="1" tooltips="1" connect="1" arrows="1" fold="1" page="1" pageScale="1" pageWidth="1100" pageHeight="850" math="0" shadow="0">
      <root>
        <mxCell id="0" />
        <mxCell id="1" parent="0" />
        <mxCell id="w5drmT6YFOY9YVp8tMi2-36" value="" style="group" vertex="1" connectable="0" parent="1">
          <mxGeometry x="105" y="200" width="890" height="400" as="geometry" />
        </mxCell>
        <mxCell id="w5drmT6YFOY9YVp8tMi2-1" value="&lt;font style=&quot;font-size: 23px;&quot;&gt;26&lt;/font&gt;" style="ellipse;whiteSpace=wrap;html=1;aspect=fixed;gradientColor=none;fillColor=default;strokeColor=#000000;" vertex="1" parent="w5drmT6YFOY9YVp8tMi2-36">
          <mxGeometry x="682.7397260273973" width="35.47552447552448" height="35.47552447552448" as="geometry" />
        </mxCell>
        <mxCell id="w5drmT6YFOY9YVp8tMi2-2" value="&lt;font style=&quot;font-size: 23px;&quot;&gt;47&lt;/font&gt;" style="ellipse;whiteSpace=wrap;html=1;aspect=fixed;" vertex="1" parent="w5drmT6YFOY9YVp8tMi2-36">
          <mxGeometry x="853.4246575342466" y="78.78787878787878" width="35.47552447552448" height="35.47552447552448" as="geometry" />
        </mxCell>
        <mxCell id="w5drmT6YFOY9YVp8tMi2-21" style="rounded=0;orthogonalLoop=1;jettySize=auto;html=1;exitX=1;exitY=1;exitDx=0;exitDy=0;entryX=0;entryY=0;entryDx=0;entryDy=0;" edge="1" parent="w5drmT6YFOY9YVp8tMi2-36" source="w5drmT6YFOY9YVp8tMi2-1" target="w5drmT6YFOY9YVp8tMi2-2">
          <mxGeometry relative="1" as="geometry" />
        </mxCell>
        <mxCell id="w5drmT6YFOY9YVp8tMi2-3" value="&lt;font style=&quot;font-size: 23px;&quot;&gt;41&lt;/font&gt;" style="ellipse;whiteSpace=wrap;html=1;aspect=fixed;" vertex="1" parent="w5drmT6YFOY9YVp8tMi2-36">
          <mxGeometry x="796.7328767123288" y="151.5151515151515" width="35.47552447552448" height="35.47552447552448" as="geometry" />
        </mxCell>
        <mxCell id="w5drmT6YFOY9YVp8tMi2-23" style="rounded=0;orthogonalLoop=1;jettySize=auto;html=1;exitX=0;exitY=1;exitDx=0;exitDy=0;entryX=1;entryY=0;entryDx=0;entryDy=0;" edge="1" parent="w5drmT6YFOY9YVp8tMi2-36" source="w5drmT6YFOY9YVp8tMi2-2" target="w5drmT6YFOY9YVp8tMi2-3">
          <mxGeometry relative="1" as="geometry" />
        </mxCell>
        <mxCell id="w5drmT6YFOY9YVp8tMi2-4" value="&lt;font style=&quot;font-size: 23px;&quot;&gt;28&lt;/font&gt;" style="ellipse;whiteSpace=wrap;html=1;aspect=fixed;fillColor=#f8cecc;strokeColor=#b85450;" vertex="1" parent="w5drmT6YFOY9YVp8tMi2-36">
          <mxGeometry x="739.431506849315" y="236.36363636363635" width="35.47552447552448" height="35.47552447552448" as="geometry" />
        </mxCell>
        <mxCell id="w5drmT6YFOY9YVp8tMi2-24" style="rounded=0;orthogonalLoop=1;jettySize=auto;html=1;exitX=0;exitY=1;exitDx=0;exitDy=0;entryX=1;entryY=0;entryDx=0;entryDy=0;" edge="1" parent="w5drmT6YFOY9YVp8tMi2-36" source="w5drmT6YFOY9YVp8tMi2-3" target="w5drmT6YFOY9YVp8tMi2-4">
          <mxGeometry relative="1" as="geometry" />
        </mxCell>
        <mxCell id="w5drmT6YFOY9YVp8tMi2-5" value="&lt;font style=&quot;font-size: 23px;&quot;&gt;17&lt;/font&gt;" style="ellipse;whiteSpace=wrap;html=1;aspect=fixed;fillColor=#f8cecc;strokeColor=#b85450;" vertex="1" parent="w5drmT6YFOY9YVp8tMi2-36">
          <mxGeometry x="398.06164383561645" y="78.78787878787878" width="35.47552447552448" height="35.47552447552448" as="geometry" />
        </mxCell>
        <mxCell id="w5drmT6YFOY9YVp8tMi2-22" style="rounded=0;orthogonalLoop=1;jettySize=auto;html=1;exitX=0;exitY=1;exitDx=0;exitDy=0;entryX=1;entryY=0;entryDx=0;entryDy=0;" edge="1" parent="w5drmT6YFOY9YVp8tMi2-36" source="w5drmT6YFOY9YVp8tMi2-1" target="w5drmT6YFOY9YVp8tMi2-5">
          <mxGeometry relative="1" as="geometry" />
        </mxCell>
        <mxCell id="w5drmT6YFOY9YVp8tMi2-6" value="&lt;font style=&quot;font-size: 23px;&quot;&gt;21&lt;/font&gt;" style="ellipse;whiteSpace=wrap;html=1;aspect=fixed;" vertex="1" parent="w5drmT6YFOY9YVp8tMi2-36">
          <mxGeometry x="568.7465753424657" y="151.5151515151515" width="35.47552447552448" height="35.47552447552448" as="geometry" />
        </mxCell>
        <mxCell id="w5drmT6YFOY9YVp8tMi2-25" style="rounded=0;orthogonalLoop=1;jettySize=auto;html=1;exitX=1;exitY=1;exitDx=0;exitDy=0;entryX=0;entryY=0;entryDx=0;entryDy=0;" edge="1" parent="w5drmT6YFOY9YVp8tMi2-36" source="w5drmT6YFOY9YVp8tMi2-5" target="w5drmT6YFOY9YVp8tMi2-6">
          <mxGeometry relative="1" as="geometry" />
        </mxCell>
        <mxCell id="w5drmT6YFOY9YVp8tMi2-7" value="&lt;font style=&quot;font-size: 23px;&quot;&gt;14&lt;/font&gt;" style="ellipse;whiteSpace=wrap;html=1;aspect=fixed;" vertex="1" parent="w5drmT6YFOY9YVp8tMi2-36">
          <mxGeometry x="227.37671232876716" y="151.5151515151515" width="35.47552447552448" height="35.47552447552448" as="geometry" />
        </mxCell>
        <mxCell id="w5drmT6YFOY9YVp8tMi2-29" style="rounded=0;orthogonalLoop=1;jettySize=auto;html=1;exitX=0;exitY=1;exitDx=0;exitDy=0;entryX=1;entryY=0;entryDx=0;entryDy=0;" edge="1" parent="w5drmT6YFOY9YVp8tMi2-36" source="w5drmT6YFOY9YVp8tMi2-5" target="w5drmT6YFOY9YVp8tMi2-7">
          <mxGeometry relative="1" as="geometry" />
        </mxCell>
        <mxCell id="w5drmT6YFOY9YVp8tMi2-9" value="&lt;font style=&quot;font-size: 23px;&quot;&gt;19&lt;/font&gt;" style="ellipse;whiteSpace=wrap;html=1;aspect=fixed;" vertex="1" parent="w5drmT6YFOY9YVp8tMi2-36">
          <mxGeometry x="455.3630136986302" y="236.36363636363635" width="35.47552447552448" height="35.47552447552448" as="geometry" />
        </mxCell>
        <mxCell id="w5drmT6YFOY9YVp8tMi2-27" style="rounded=0;orthogonalLoop=1;jettySize=auto;html=1;exitX=0;exitY=1;exitDx=0;exitDy=0;entryX=1;entryY=0;entryDx=0;entryDy=0;" edge="1" parent="w5drmT6YFOY9YVp8tMi2-36" source="w5drmT6YFOY9YVp8tMi2-6" target="w5drmT6YFOY9YVp8tMi2-9">
          <mxGeometry relative="1" as="geometry" />
        </mxCell>
        <mxCell id="w5drmT6YFOY9YVp8tMi2-10" value="&lt;font style=&quot;font-size: 23px;&quot;&gt;23&lt;/font&gt;" style="ellipse;whiteSpace=wrap;html=1;aspect=fixed;" vertex="1" parent="w5drmT6YFOY9YVp8tMi2-36">
          <mxGeometry x="626.0479452054794" y="236.36363636363635" width="35.47552447552448" height="35.47552447552448" as="geometry" />
        </mxCell>
        <mxCell id="w5drmT6YFOY9YVp8tMi2-26" style="rounded=0;orthogonalLoop=1;jettySize=auto;html=1;exitX=1;exitY=1;exitDx=0;exitDy=0;entryX=0;entryY=0;entryDx=0;entryDy=0;" edge="1" parent="w5drmT6YFOY9YVp8tMi2-36" source="w5drmT6YFOY9YVp8tMi2-6" target="w5drmT6YFOY9YVp8tMi2-10">
          <mxGeometry relative="1" as="geometry" />
        </mxCell>
        <mxCell id="w5drmT6YFOY9YVp8tMi2-11" value="&lt;font style=&quot;font-size: 23px;&quot;&gt;20&lt;/font&gt;" style="ellipse;whiteSpace=wrap;html=1;aspect=fixed;fillColor=#f8cecc;strokeColor=#b85450;" vertex="1" parent="w5drmT6YFOY9YVp8tMi2-36">
          <mxGeometry x="512.054794520548" y="303.030303030303" width="35.47552447552448" height="35.47552447552448" as="geometry" />
        </mxCell>
        <mxCell id="w5drmT6YFOY9YVp8tMi2-28" style="rounded=0;orthogonalLoop=1;jettySize=auto;html=1;exitX=1;exitY=1;exitDx=0;exitDy=0;entryX=0;entryY=0;entryDx=0;entryDy=0;" edge="1" parent="w5drmT6YFOY9YVp8tMi2-36" source="w5drmT6YFOY9YVp8tMi2-9" target="w5drmT6YFOY9YVp8tMi2-11">
          <mxGeometry relative="1" as="geometry" />
        </mxCell>
        <mxCell id="w5drmT6YFOY9YVp8tMi2-12" value="&lt;font style=&quot;font-size: 23px;&quot;&gt;10&lt;/font&gt;" style="ellipse;whiteSpace=wrap;html=1;aspect=fixed;fillColor=#f8cecc;strokeColor=#b85450;" vertex="1" parent="w5drmT6YFOY9YVp8tMi2-36">
          <mxGeometry x="113.99315068493152" y="236.36363636363635" width="35.47552447552448" height="35.47552447552448" as="geometry" />
        </mxCell>
        <mxCell id="w5drmT6YFOY9YVp8tMi2-31" style="rounded=0;orthogonalLoop=1;jettySize=auto;html=1;exitX=0;exitY=1;exitDx=0;exitDy=0;entryX=1;entryY=0;entryDx=0;entryDy=0;" edge="1" parent="w5drmT6YFOY9YVp8tMi2-36" source="w5drmT6YFOY9YVp8tMi2-7" target="w5drmT6YFOY9YVp8tMi2-12">
          <mxGeometry relative="1" as="geometry" />
        </mxCell>
        <mxCell id="w5drmT6YFOY9YVp8tMi2-13" value="&lt;font style=&quot;font-size: 23px;&quot;&gt;7&lt;/font&gt;" style="ellipse;whiteSpace=wrap;html=1;aspect=fixed;" vertex="1" parent="w5drmT6YFOY9YVp8tMi2-36">
          <mxGeometry x="56.69178082191781" y="303.030303030303" width="35.47552447552448" height="35.47552447552448" as="geometry" />
        </mxCell>
        <mxCell id="w5drmT6YFOY9YVp8tMi2-34" style="rounded=0;orthogonalLoop=1;jettySize=auto;html=1;exitX=0;exitY=1;exitDx=0;exitDy=0;entryX=1;entryY=0;entryDx=0;entryDy=0;" edge="1" parent="w5drmT6YFOY9YVp8tMi2-36" source="w5drmT6YFOY9YVp8tMi2-12" target="w5drmT6YFOY9YVp8tMi2-13">
          <mxGeometry relative="1" as="geometry" />
        </mxCell>
        <mxCell id="w5drmT6YFOY9YVp8tMi2-14" value="&lt;font style=&quot;font-size: 23px;&quot;&gt;15&lt;/font&gt;" style="ellipse;whiteSpace=wrap;html=1;aspect=fixed;fillColor=#f8cecc;strokeColor=#b85450;" vertex="1" parent="w5drmT6YFOY9YVp8tMi2-36">
          <mxGeometry x="284.6780821917808" y="303.030303030303" width="35.47552447552448" height="35.47552447552448" as="geometry" />
        </mxCell>
        <mxCell id="w5drmT6YFOY9YVp8tMi2-32" style="rounded=0;orthogonalLoop=1;jettySize=auto;html=1;exitX=0;exitY=1;exitDx=0;exitDy=0;entryX=1;entryY=0;entryDx=0;entryDy=0;" edge="1" parent="w5drmT6YFOY9YVp8tMi2-36" source="w5drmT6YFOY9YVp8tMi2-15" target="w5drmT6YFOY9YVp8tMi2-14">
          <mxGeometry relative="1" as="geometry" />
        </mxCell>
        <mxCell id="w5drmT6YFOY9YVp8tMi2-15" value="&lt;font style=&quot;font-size: 23px;&quot;&gt;16&lt;/font&gt;" style="ellipse;whiteSpace=wrap;html=1;aspect=fixed;" vertex="1" parent="w5drmT6YFOY9YVp8tMi2-36">
          <mxGeometry x="341.36986301369865" y="236.36363636363635" width="35.47552447552448" height="35.47552447552448" as="geometry" />
        </mxCell>
        <mxCell id="w5drmT6YFOY9YVp8tMi2-30" style="rounded=0;orthogonalLoop=1;jettySize=auto;html=1;exitX=1;exitY=1;exitDx=0;exitDy=0;entryX=0;entryY=0;entryDx=0;entryDy=0;" edge="1" parent="w5drmT6YFOY9YVp8tMi2-36" source="w5drmT6YFOY9YVp8tMi2-7" target="w5drmT6YFOY9YVp8tMi2-15">
          <mxGeometry relative="1" as="geometry" />
        </mxCell>
        <mxCell id="w5drmT6YFOY9YVp8tMi2-16" value="&lt;font style=&quot;font-size: 23px;&quot;&gt;3&lt;/font&gt;" style="ellipse;whiteSpace=wrap;html=1;aspect=fixed;fillColor=#f8cecc;strokeColor=#b85450;" vertex="1" parent="w5drmT6YFOY9YVp8tMi2-36">
          <mxGeometry y="363.6363636363637" width="35.47552447552448" height="35.47552447552448" as="geometry" />
        </mxCell>
        <mxCell id="w5drmT6YFOY9YVp8tMi2-35" style="rounded=0;orthogonalLoop=1;jettySize=auto;html=1;exitX=0;exitY=1;exitDx=0;exitDy=0;entryX=1;entryY=0;entryDx=0;entryDy=0;" edge="1" parent="w5drmT6YFOY9YVp8tMi2-36" source="w5drmT6YFOY9YVp8tMi2-13" target="w5drmT6YFOY9YVp8tMi2-16">
          <mxGeometry relative="1" as="geometry" />
        </mxCell>
        <mxCell id="w5drmT6YFOY9YVp8tMi2-17" value="&lt;font style=&quot;font-size: 23px;&quot;&gt;12&lt;/font&gt;" style="ellipse;whiteSpace=wrap;html=1;aspect=fixed;" vertex="1" parent="w5drmT6YFOY9YVp8tMi2-36">
          <mxGeometry x="170.68493150684932" y="303.030303030303" width="35.47552447552448" height="35.47552447552448" as="geometry" />
        </mxCell>
        <mxCell id="w5drmT6YFOY9YVp8tMi2-33" style="rounded=0;orthogonalLoop=1;jettySize=auto;html=1;exitX=1;exitY=1;exitDx=0;exitDy=0;entryX=0;entryY=0;entryDx=0;entryDy=0;" edge="1" parent="w5drmT6YFOY9YVp8tMi2-36" source="w5drmT6YFOY9YVp8tMi2-12" target="w5drmT6YFOY9YVp8tMi2-17">
          <mxGeometry relative="1" as="geometry" />
        </mxCell>
      </root>
    </mxGraphModel>
  </diagram>
</mxfile>
